<svg width="60.252" height="84.071" viewBox="0 0 60.252 84.071" xmlns="http://www.w3.org/2000/svg"><g id="svgGroup" stroke-linecap="round" fill-rule="evenodd" font-size="9pt" stroke="#000" stroke-width="0.25mm" fill="#000" style="stroke:#000;stroke-width:0.25mm;fill:#000"><path d="M 35.279 70.556 L 35.279 70.558 C 44.329 70.558 52.932 67.133 59.507 60.919 C 60.004 60.448 60.254 59.813 60.252 59.178 A 2.361 2.361 0 0 0 59.602 57.559 A 2.372 2.372 0 0 0 57.874 56.814 C 57.288 56.814 56.701 57.03 56.244 57.463 C 50.555 62.841 43.109 65.803 35.279 65.803 A 30.558 30.558 0 0 1 4.753 35.279 C 4.753 18.446 18.446 4.753 35.281 4.753 C 43.055 4.753 50.46 7.678 56.135 12.988 A 2.367 2.367 0 0 0 57.749 13.627 C 57.752 13.627 57.755 13.627 57.757 13.627 A 2.379 2.379 0 0 0 59.495 12.876 C 59.924 12.418 60.136 11.835 60.136 11.253 A 2.369 2.369 0 0 0 59.384 9.518 C 52.825 3.379 44.262 0 35.279 0 A 35.319 35.319 0 0 0 0 35.279 A 35.317 35.317 0 0 0 35.279 70.556 Z M 37.888 81.694 L 37.888 77.92 C 37.888 76.608 36.826 75.544 35.512 75.544 C 34.198 75.544 33.135 76.608 33.135 77.92 L 33.135 81.694 C 33.135 83.006 34.198 84.071 35.512 84.071 C 36.826 84.071 37.888 83.006 37.888 81.694 Z" vector-effect="non-scaling-stroke"/></g></svg>