<?xml version="1.0" encoding="iso-8859-1"?>
<!-- Uploaded to: SVG Repo, www.svgrepo.com, Generator: SVG Repo Mixer Tools -->
<svg xmlns="http://www.w3.org/2000/svg" xmlns:xlink="http://www.w3.org/1999/xlink" version="1.1" id="Layer_1"  viewBox="0 0 409.369 409.369" xml:space="preserve" width="512" height="512">
<g>
	<g>
		<path style="fill:#333E48;" d="M214.045,409.369c-2.819,0-5.52-1.597-6.796-4.318c-1.758-3.75-0.144-8.216,3.607-9.975    c35.033-16.427,57.321-36.086,68.137-60.102c9.59-21.293,9.584-44.248,9.578-66.446l0-1.744c0-4.143,3.358-7.5,7.5-7.5    c4.142,0,7.5,3.357,7.5,7.5l0,1.739c0.013,46.702,0.028,99.634-86.346,140.135C216.195,409.141,215.111,409.369,214.045,409.369z"/>
		<g>
			<path style="fill:#FEDD3D;" d="M314.944,280.627l0.018-0.02c-2.579-4.415-5.289-10.722-4.185-23.539h-29.417     c1.105,12.817-1.605,19.124-4.185,23.539l0.019,0.02c-0.585,1.024-0.946,2.193-0.946,3.456c0,3.876,3.14,7.014,7.014,7.014     c1.097,0,2.12-0.272,3.044-0.721l0.018,0.019c1.952-0.99,5.768-2.425,9.745-2.425c3.977,0,7.793,1.435,9.745,2.425l0.018-0.019     c0.923,0.449,1.947,0.721,3.044,0.721c3.873,0,7.013-3.138,7.013-7.014C315.89,282.82,315.529,281.651,314.944,280.627z"/>
			<path style="opacity:0.2;fill:#222222;" d="M281.361,257.068c1.105,12.817-1.605,19.124-4.185,23.539l0.019,0.02     c-0.585,1.024-0.946,2.193-0.946,3.456c0,3.876,3.14,7.014,7.014,7.014c1.097,0,2.12-0.272,3.044-0.721l0.018,0.019     c1.952-0.99,5.767-2.425,9.744-2.425v-30.901H281.361z"/>
			<path style="opacity:0.2;fill:#222222;" d="M312.058,274.084c-1.229-4.001-1.942-9.331-1.28-17.016h-29.417     c0.663,7.685-0.05,13.015-1.279,17.016H312.058z"/>
		</g>
		<g>
			<path style="fill:#FEDD3D;" d="M402.673,120.401c0-58.875-47.728-106.604-106.603-106.604S189.467,61.526,189.467,120.401     c0,58.876,47.728,135.221,106.603,135.221S402.673,179.277,402.673,120.401z"/>
			<path style="opacity:0.2;fill:#222222;" d="M296.07,13.798c-58.875,0-106.603,47.729-106.603,106.604     c0,58.876,47.728,135.221,106.603,135.221V13.798z"/>
		</g>
		<path style="fill:#FEDD3D;" d="M315.89,267.335H276.25c-4.142,0-7.5-3.357-7.5-7.5c0-4.143,3.358-7.5,7.5-7.5h39.641    c4.142,0,7.5,3.357,7.5,7.5C323.39,263.978,320.032,267.335,315.89,267.335z"/>
		<g>
			<circle style="fill:#333E48;" cx="235.372" cy="117.47" r="8.442"/>
			<circle style="fill:#333E48;" cx="356.767" cy="117.47" r="8.441"/>
			<path style="fill:#333E48;" d="M269.184,121.797c0,14.847,12.038,26.886,26.886,26.886c14.849,0,26.886-12.039,26.886-26.886     H269.184z"/>
		</g>
	</g>
	<g>
		<path style="fill:#333E48;" d="M195.324,395.571c-1.067,0-2.149-0.228-3.179-0.711c-86.374-40.501-86.359-93.434-86.346-140.135    l0-1.74c0-4.143,3.358-7.5,7.5-7.5c4.142,0,7.5,3.357,7.5,7.5l0,1.744c-0.006,22.199-0.013,45.153,9.578,66.447    c10.815,24.016,33.104,43.675,68.137,60.102c3.751,1.759,5.365,6.225,3.607,9.975    C200.844,393.974,198.143,395.571,195.324,395.571z"/>
		<g>
			<path style="fill:#675DC6;" d="M132.174,266.828l0.018-0.02c-2.578-4.414-5.288-10.722-4.184-23.538H98.591     c1.104,12.816-1.605,19.124-4.185,23.538l0.019,0.02c-0.585,1.024-0.946,2.194-0.946,3.457c0,3.875,3.14,7.014,7.014,7.014     c1.097,0,2.12-0.272,3.044-0.722l0.018,0.018c1.952-0.99,5.768-2.425,9.745-2.425c3.977,0,7.793,1.435,9.745,2.425l0.018-0.018     c0.924,0.449,1.947,0.722,3.044,0.722c3.873,0,7.013-3.139,7.013-7.014C133.12,269.022,132.758,267.853,132.174,266.828z"/>
			<path style="opacity:0.2;fill:#222222;" d="M98.591,243.27c1.104,12.816-1.605,19.124-4.185,23.538l0.019,0.02     c-0.585,1.024-0.946,2.194-0.946,3.457c0,3.875,3.14,7.014,7.014,7.014c1.097,0,2.12-0.272,3.044-0.722l0.018,0.018     c1.952-0.99,5.767-2.425,9.744-2.425v-30.9H98.591z"/>
			<path style="opacity:0.2;fill:#222222;" d="M129.287,260.286c-1.229-4.001-1.942-9.332-1.279-17.016H98.591     c0.662,7.684-0.051,13.015-1.28,17.016H129.287z"/>
		</g>
		<g>
			<path style="fill:#675DC6;" d="M219.902,106.603C219.902,47.728,172.174,0,113.299,0S6.696,47.728,6.696,106.603     c0,58.876,47.728,135.222,106.603,135.222S219.902,165.479,219.902,106.603z"/>
			<path style="opacity:0.2;fill:#222222;" d="M113.299,0C54.424,0,6.696,47.728,6.696,106.603     c0,58.876,47.728,135.222,106.603,135.222V0z"/>
		</g>
		<g>
			<circle style="fill:#333E48;" cx="52.601" cy="103.671" r="8.442"/>
			<circle style="fill:#333E48;" cx="173.997" cy="103.671" r="8.441"/>
			<path style="fill:#333E48;" d="M86.413,107.998c0,14.847,12.038,26.886,26.886,26.886c14.849,0,26.886-12.039,26.886-26.886     H86.413z"/>
		</g>
		<path style="fill:#675DC6;" d="M133.12,253.537H93.479c-4.142,0-7.5-3.357-7.5-7.5c0-4.142,3.358-7.5,7.5-7.5h39.641    c4.142,0,7.5,3.358,7.5,7.5C140.62,250.18,137.262,253.537,133.12,253.537z"/>
	</g>
</g>















</svg>