<svg width="371" height="675" viewBox="0 0 371 675" fill="none" xmlns="http://www.w3.org/2000/svg">
<path d="M318.59 570.054C318.399 569.436 318.28 568.859 318.136 568.272C310.121 572.975 302.456 574.221 295.306 571.913C285.333 568.694 276.236 558.711 269.132 543.463C285.225 521.786 294.754 494.948 294.754 465.874C294.754 455.587 293.528 445.599 291.277 436.002C282.675 446.444 272.805 455.788 261.915 463.834C261.879 479.381 251.788 515.61 201.537 527.458C201.331 531.78 201.125 536.102 200.924 540.424C200.455 550.438 194.428 558.154 184.362 557.928C174.364 557.686 168.79 549.583 168.79 539.553V541.871C168.79 551.288 158.781 558.901 149.359 559.107C148.654 559.123 147.005 559.133 146.279 559.149C136.873 559.386 128.358 552.143 127.92 542.737C127.662 537.42 127.162 532.099 126.905 526.773C80.6412 514.657 69.9523 481.328 69.2826 465.375C57.548 456.988 46.8539 447.124 37.7001 436.002C35.4438 445.604 36.2783 455.592 36.2783 465.874C36.2783 498.909 45.1592 529.055 70.9156 552.019V643.908C70.9156 632.848 87.6882 625.492 101.823 625.492C115.958 625.492 127.58 632.843 132.731 643.908V592.57C143.034 594.904 152.651 596.176 163.134 596.176C172.128 596.176 179.093 595.264 189.395 593.528V641.394C199.698 631.751 207.275 625.492 220.303 625.492C233.331 625.492 246.059 631.751 251.211 641.394V560.014C251.211 558.474 256.022 556.897 257.552 555.28C266.031 571.058 277.647 581.361 290.139 585.394C293.894 586.61 298.144 587.213 302.049 587.213C309.513 587.213 317.379 584.972 324.92 580.599C322.268 578.651 320.222 575.277 318.59 570.054Z" fill="#6C90A3"/>
<path d="M318.136 568.272C318.28 568.854 318.399 569.436 318.59 570.054C320.217 575.282 322.474 578.651 325.132 580.599C338.473 590.396 362.2 563.501 370.499 545.879C370.499 545.879 311.233 538.894 318.136 568.272Z" fill="#85A0B0"/>
<path d="M100.391 625.497C86.251 625.497 73.9755 632.848 66.8512 643.913C62.8487 650.146 60.613 657.554 60.613 665.518V674.785H137.882V665.518C137.882 657.554 136.795 650.151 132.783 643.913C125.663 632.848 114.526 625.497 100.391 625.497Z" fill="#FFD6BC"/>
<path d="M222.606 625.497C209.578 625.497 196.293 631.756 188.978 641.399C183.899 648.111 179.098 656.446 179.098 665.518V674.785H261.518V665.518C261.518 656.451 259.025 648.116 253.941 641.399C246.626 631.756 235.643 625.497 222.606 625.497Z" fill="#FFD6BC"/>
<path d="M69.1539 465.375C69.1333 464.813 69.1178 464.267 69.1178 463.747C69.1178 415.237 127.163 393.772 165.318 393.772C203.448 393.772 261.513 415.237 261.513 463.747C261.513 463.778 261.513 463.809 261.513 463.834C271.816 455.788 282.474 446.444 291.066 436.002C314.422 407.639 328.547 371.307 328.547 331.704C328.547 271.49 296.176 218.875 247.847 190.296C256.084 178.211 274.438 149.791 281.742 125.833C291.319 94.4819 291.962 8.50691 266.628 0.924215C242.309 -6.3494 190.008 72.4756 197.895 170.922C189.483 169.176 180.829 168.094 171.999 167.692C176.064 164.05 180.767 161.098 185.681 157.941C188.169 156.328 187.237 153.335 183.95 153.948C175.827 155.458 169.14 164.807 164.592 169.959C164.551 169.959 164.504 169.959 164.458 169.959C163.046 169.959 161.645 168.8 160.244 168.836C162.712 161.052 165.545 153.129 169.965 145.964C171.371 143.682 168.429 140.612 166.364 142.512C158.936 149.328 155 158.172 154.356 168.001C153.784 168.037 153.207 168.011 152.641 168.053C150.173 155.865 151.698 144.949 154.861 132.524C155.865 128.594 150.92 125.874 148.427 129.32C140.17 140.777 139.129 155.88 144.095 168.815C138.408 169.521 132.803 170.51 127.302 171.782C136.213 77.8587 90.0836 1.54752 66.1661 7.41484C40.4921 13.7149 36.8038 99.6074 44.7934 131.401C50.4908 154.103 65.5995 181.183 73.7797 194.824C29.4838 224.233 0.265717 274.545 0.265717 331.704C0.265717 371.307 14.2927 407.639 37.6435 436.002C46.7973 447.124 57.4141 456.988 69.1539 465.375ZM260.035 350.429C260.699 368.886 246.271 384.386 227.803 385.045C209.346 385.7 193.851 371.271 193.197 352.814C192.532 334.352 206.961 318.856 225.413 318.202C243.875 317.538 259.37 331.967 260.035 350.429ZM248.45 56.893C259.406 61.0706 255.46 99.6486 251.994 119.064C248.527 138.474 223.935 182.615 223.935 182.615L214.992 176.939C214.678 145.093 237.493 52.7153 248.45 56.893ZM74.8666 126.131C72.3786 106.572 70.3799 67.8446 81.5324 64.2129C92.6798 60.5916 110.833 154 108.922 185.794L99.701 191.012C99.701 191.012 77.3496 145.696 74.8666 126.131ZM99.0468 318.202C117.509 318.856 131.933 334.352 131.268 352.814C130.614 371.266 115.114 385.7 96.6617 385.045C78.1944 384.386 63.7656 368.886 64.4301 350.429C65.0947 331.967 80.5846 317.538 99.0468 318.202Z" fill="#85A0B0"/>
<path d="M193.202 352.814C193.856 371.266 209.351 385.7 227.808 385.045C246.276 384.386 260.704 368.886 260.04 350.429C259.375 331.967 243.88 317.538 225.418 318.202C206.961 318.857 192.537 334.352 193.202 352.814ZM237.817 352.752C237.745 354.879 237.065 356.832 236.025 358.532C234.103 353.247 229.503 348.77 222.528 348.528C218.85 348.399 216.048 349.476 214.049 351.253C214.621 344.984 219.953 340.167 226.314 340.399C232.898 340.631 238.049 346.163 237.817 352.752Z" fill="white"/>
<path d="M214.044 351.258C216.048 349.481 218.85 348.399 222.523 348.533C229.498 348.775 234.098 353.252 236.02 358.537C237.055 356.837 237.74 354.885 237.812 352.757C238.044 346.169 232.893 340.636 226.309 340.404C219.948 340.173 214.621 344.984 214.044 351.258Z" fill="#353A42"/>
<path d="M96.6618 385.045C115.114 385.7 130.614 371.271 131.268 352.814C131.933 334.352 117.509 318.857 99.0468 318.202C80.5846 317.538 65.0947 331.967 64.4302 350.429C63.7708 368.886 78.1944 384.381 96.6618 385.045ZM98.1505 340.399C104.517 340.173 109.844 344.984 110.421 351.253C108.417 349.476 105.615 348.394 101.942 348.528C94.967 348.77 90.3669 353.247 88.4455 358.532C87.4049 356.832 86.7249 354.879 86.6477 352.752C86.421 346.163 91.5723 340.631 98.1505 340.399Z" fill="white"/>
<path d="M101.942 348.528C105.62 348.399 108.422 349.476 110.421 351.253C109.844 344.984 104.517 340.167 98.1505 340.399C91.5723 340.626 86.421 346.163 86.6476 352.752C86.7249 354.879 87.3997 356.832 88.4455 358.532C90.3669 353.247 94.9618 348.77 101.942 348.528Z" fill="#353A42"/>
<path d="M165.519 531.306C150.359 531.306 137.517 529.621 126.637 526.773C126.89 532.099 127.137 537.42 127.389 542.737C127.837 552.143 135.801 559.386 145.207 559.149C145.929 559.133 148.664 559.123 149.37 559.107C158.786 558.901 168.8 551.288 168.8 541.871V539.553C168.8 549.588 174.374 557.691 184.373 557.928C194.438 558.154 201.547 550.433 202.021 540.424C202.222 536.107 201.882 531.785 202.088 527.458C191.821 529.879 179.386 531.306 165.519 531.306Z" fill="white"/>
<path d="M165.318 393.777C127.168 393.777 69.0096 415.242 69.0096 463.752C69.0096 464.272 69.0818 464.818 69.1024 465.38C69.772 481.333 80.3476 514.657 126.616 526.778C137.491 529.627 150.343 531.311 165.509 531.311C179.376 531.311 191.075 529.884 201.331 527.463C251.587 515.615 261.518 479.386 261.518 463.839C261.518 463.814 261.518 463.783 261.518 463.752C261.513 415.242 203.453 393.777 165.318 393.777ZM218.036 472.02C220.499 487.18 192.074 497.663 192.074 497.663C187.118 465.519 215.553 456.865 218.036 472.02ZM110.879 472.02C113.347 456.865 141.792 465.514 136.842 497.663C136.842 497.663 108.417 487.18 110.879 472.02Z" fill="#B6C6D0"/>
<path d="M192.074 497.663C192.074 497.663 220.499 487.18 218.036 472.02C215.553 456.865 187.118 465.519 192.074 497.663Z" fill="#3E494F"/>
<path d="M110.879 472.02C108.412 487.18 136.842 497.663 136.842 497.663C141.792 465.519 113.352 456.865 110.879 472.02Z" fill="#3E494F"/>
<path d="M108.922 185.794C110.828 154 92.6798 60.5916 81.5324 64.2129C70.3799 67.8394 72.3786 106.567 74.8666 126.131C77.3496 145.696 99.701 191.012 99.701 191.012L108.922 185.794Z" fill="#FFD6BC"/>
<path d="M223.935 182.615C223.935 182.615 248.527 138.474 251.994 119.064C255.46 99.6486 259.401 61.0706 248.45 56.8929C237.493 52.7152 214.678 145.093 214.992 176.939L223.935 182.615Z" fill="#FFD6BC"/>
<path opacity="0.3" d="M318.136 568.272C310.116 572.975 302.445 574.216 295.306 571.913C285.333 568.694 276.236 558.711 269.132 543.463C285.225 521.786 294.754 494.948 294.754 465.874C294.754 455.587 293.528 445.599 291.277 436.002C314.623 407.639 328.655 371.307 328.655 331.704C328.655 271.49 296.228 218.875 247.898 190.296C256.14 178.211 274.458 149.791 281.773 125.833C291.344 94.4819 291.973 8.5069 266.639 0.92421C242.309 -6.35456 190.013 72.4704 197.9 170.922C189.483 169.176 180.829 168.094 171.989 167.692C176.059 164.05 180.757 161.098 185.671 157.941C188.159 156.328 187.232 152.794 183.945 153.407C175.904 154.901 169.279 161.65 164.736 168.655V596.171C173.627 596.15 182.322 595.244 190.714 593.528V641.327C187.355 647.184 182.709 654.999 182.709 662.231L182.575 669.577L262.925 670.282V663.89C262.925 653.247 261.261 648.513 254.482 641.343V560.019C256.089 558.479 257.65 556.903 259.18 555.285C267.664 571.064 278.461 581.366 290.953 585.394C294.708 586.61 298.551 587.213 302.451 587.213C309.915 587.213 317.575 584.972 325.116 580.599C338.458 590.396 362.185 563.501 370.484 545.879C370.499 545.879 311.228 538.894 318.136 568.272Z" fill="white"/>
<path d="M164.746 155.937C166.235 152.444 167.909 149.013 169.959 145.696C171.366 143.419 168.424 140.483 166.359 142.379C165.792 142.904 165.272 143.46 164.746 144.001V155.937Z" fill="#C6772B"/>
</svg>
