<svg width="476" height="476" viewBox="0 0 476 476" fill="none" xmlns="http://www.w3.org/2000/svg">
<path d="M65.161 212.881L165.559 325.456L262.186 239.283L218.924 190.772L65.161 212.881Z" fill="#00C47A"/>
<path d="M239.381 213.711L197.194 251.334L212.979 410.735L325.555 310.34L239.381 213.711Z" fill="#BF256B"/>
<path d="M224.32 227.144L0.098999 427.107L175.635 426.821C189.11 426.799 201.751 421.51 211.228 411.928C220.704 402.346 225.854 389.648 225.726 376.172L224.32 227.144Z" fill="#FF318F"/>
<path d="M310.438 150.343L213.811 236.517L255.497 283.26L410.834 262.917L310.438 150.343Z" fill="#388CB2"/>
<path d="M426.919 300.262C426.896 286.785 421.608 274.145 412.026 264.668C402.443 255.192 389.695 250.047 376.27 250.17L227.243 251.577L427.205 475.798L426.919 300.262Z" fill="#4BBAED"/>
<path d="M263.017 65.063L150.441 165.46L236.615 262.087L284.325 219.54L263.017 65.063Z" fill="#5B64B1"/>
<path d="M300.361 48.978C286.886 49 274.245 54.289 264.768 63.871C255.292 73.453 250.142 86.151 250.27 99.627L251.676 248.655L475.897 48.693L300.361 48.978Z" fill="#7985EC"/>
<path d="M48.791 0L49.077 175.536C49.1 189.013 54.388 201.653 63.97 211.13C73.437 220.492 85.944 225.63 99.238 225.63C99.4 225.63 99.565 225.629 99.727 225.628L248.754 224.221L48.791 0Z" fill="#60DD4D"/>
<path d="M237.997 278.699C260.532 278.699 278.8 260.431 278.8 237.896C278.8 215.361 260.532 197.093 237.997 197.093C215.462 197.093 197.194 215.361 197.194 237.896C197.194 260.431 215.462 278.699 237.997 278.699Z" fill="#FFD738"/>
<path d="M237.997 278.699C260.532 278.699 278.8 260.431 278.8 237.896C278.8 215.361 260.532 197.093 237.997 197.093C215.462 197.093 197.194 215.361 197.194 237.896C197.194 260.431 215.462 278.699 237.997 278.699Z" fill="black"/>
<path d="M238.073 295.837C236.949 295.837 235.821 295.805 234.69 295.74C219.241 294.857 205.06 288.009 194.759 276.459C184.459 264.91 179.272 250.041 180.157 234.591C181.04 219.142 187.888 204.961 199.438 194.66C210.988 184.359 225.868 179.176 241.306 180.058C256.755 180.941 270.936 187.789 281.237 199.339C291.537 210.888 296.724 225.757 295.839 241.207C294.956 256.656 288.108 270.837 276.558 281.138C265.854 290.683 252.299 295.837 238.073 295.837ZM237.967 214.225C232.154 214.225 226.617 216.331 222.242 220.231C217.523 224.44 214.725 230.235 214.365 236.547C214.004 242.859 216.123 248.935 220.331 253.654H220.332C224.541 258.373 230.334 261.171 236.647 261.532C242.942 261.892 249.035 259.774 253.754 255.566C258.473 251.357 261.271 245.562 261.631 239.25C261.992 232.938 259.873 226.862 255.665 222.143C251.455 217.424 245.661 214.626 239.349 214.265C238.889 214.239 238.426 214.225 237.967 214.225Z" fill="white"/>
</svg>
