<?xml version="1.0" encoding="iso-8859-1"?>
<!-- Uploaded to: SVG Repo, www.svgrepo.com, Generator: SVG Repo Mixer Tools -->
<svg fill="#000000" height="800px" width="800px" version="1.1" id="Layer_1" xmlns="http://www.w3.org/2000/svg" xmlns:xlink="http://www.w3.org/1999/xlink" 
	 viewBox="0 0 512 512" xml:space="preserve">
<g>
	<g>
		<path d="M254.694,62.694c-69.139,0-125.388,56.253-125.388,125.395v313.462c0,5.77,5.985,10.449,11.755,10.449h229.878
			c5.77,0,9.143-4.679,9.143-10.449V188.089C380.082,118.946,323.833,62.694,254.694,62.694z M359.184,491.102h-208.98V188.089
			c0-57.62,46.874-104.497,104.49-104.497c57.616,0,104.49,46.878,104.49,104.497V491.102z"/>
	</g>
</g>
<g>
	<g>
		<path d="M256,0C146.529,0,57.469,89.06,57.469,198.531c0,27.248,5.422,53.652,16.116,78.478c1.703,3.953,5.555,6.317,9.602,6.317
			c1.379,0,2.782-0.274,4.129-0.854c5.3-2.283,7.746-8.431,5.463-13.731c-9.564-22.2-14.412-45.823-14.412-70.21
			c0-97.946,79.686-177.633,177.633-177.633s177.633,79.686,177.633,177.633c0,24.027-4.71,47.325-14.001,69.249
			c-2.251,5.313,0.231,11.445,5.545,13.698c5.313,2.249,11.445-0.23,13.698-5.544c10.389-24.515,15.657-50.557,15.657-77.402
			C454.531,89.06,365.471,0,256,0z"/>
	</g>
</g>
<g>
	<g>
		<path d="M254.694,104.49c-46.093,0-83.592,37.476-83.592,83.54v83.644c0,5.77,5.985,10.449,11.755,10.449h146.286
			c5.77,0,9.143-4.679,9.143-10.449v-83.644C338.286,141.966,300.787,104.49,254.694,104.49z M317.388,261.224H192v-73.195
			c0-34.541,28.125-62.642,62.694-62.642c34.569,0,62.694,28.101,62.694,62.642V261.224z"/>
	</g>
</g>
<g>
	<g>
		<path d="M297.796,344.816h-83.592c-5.77,0-10.449,4.679-10.449,10.449s4.679,10.449,10.449,10.449h83.592
			c5.77,0,10.449-4.679,10.449-10.449S303.566,344.816,297.796,344.816z"/>
	</g>
</g>
<g>
	<g>
		<path d="M297.796,386.612h-83.592c-5.77,0-10.449,4.679-10.449,10.449s4.679,10.449,10.449,10.449h83.592
			c5.77,0,10.449-4.679,10.449-10.449S303.566,386.612,297.796,386.612z"/>
	</g>
</g>
<g>
	<g>
		<path d="M308.245,428.408h-104.49c-5.77,0-10.449,4.679-10.449,10.449s4.679,10.449,10.449,10.449h104.49
			c5.77,0,10.449-4.679,10.449-10.449S314.015,428.408,308.245,428.408z"/>
	</g>
</g>
</svg>