<?xml version="1.0" encoding="iso-8859-1"?>
<!-- Uploaded to: SVG Repo, www.svgrepo.com, Generator: SVG Repo Mixer Tools -->
<svg fill="#000000" height="800px" width="800px" version="1.1" id="Layer_1" xmlns="http://www.w3.org/2000/svg" xmlns:xlink="http://www.w3.org/1999/xlink" 
	 viewBox="0 0 512 512" xml:space="preserve">
<g>
	<g>
		<path d="M307.918,97.93c-21.62,0-42.572,4.303-62.273,12.789c-4.32,1.861-6.314,6.87-4.453,11.19
			c1.861,4.319,6.869,6.313,11.189,4.452c17.564-7.565,36.248-11.4,55.537-11.4c77.477,0,140.509,63.032,140.509,140.509
			s-63.032,140.509-140.509,140.509c-19.004,0-37.433-3.726-54.776-11.075c-4.331-1.834-9.329,0.187-11.162,4.519
			c-1.836,4.331,0.187,9.329,4.518,11.164c19.455,8.244,40.121,12.424,61.421,12.424c86.868,0,157.541-70.673,157.541-157.541
			S394.786,97.93,307.918,97.93z"/>
	</g>
</g>
<g>
	<g>
		<path d="M311.587,161.798H56.122c-4.703,0-9.58,3.813-9.58,8.516V357.66c0,4.703,4.877,8.516,9.58,8.516h255.466
			c56.35,0,102.195-45.842,102.195-102.189C413.782,207.64,367.937,161.798,311.587,161.798z M311.587,349.144H63.573V178.83
			h248.014c46.959,0,85.163,38.201,85.163,85.157C396.751,310.943,358.546,349.144,311.587,349.144z"/>
	</g>
</g>
<g>
	<g>
		<path d="M311.635,195.861h-68.167c-4.703,0-9.58,3.813-9.58,8.516v119.22c0,4.703,4.877,8.516,9.58,8.516h68.167
			c37.541,0,68.084-30.561,68.084-68.126C379.719,226.422,349.176,195.861,311.635,195.861z M311.635,315.081h-60.716V212.893
			h60.716c28.15,0,51.053,22.921,51.053,51.094C362.688,292.16,339.785,315.081,311.635,315.081z"/>
	</g>
</g>
<g>
	<g>
		<path d="M174.277,221.408c-4.703,0-8.516,3.813-8.516,8.516v68.126c0,4.703,3.813,8.516,8.516,8.516
			c4.703,0,8.516-3.813,8.516-8.516v-68.126C182.793,225.221,178.98,221.408,174.277,221.408z"/>
	</g>
</g>
<g>
	<g>
		<path d="M140.214,221.408c-4.703,0-8.516,3.813-8.516,8.516v68.126c0,4.703,3.813,8.516,8.516,8.516s8.516-3.813,8.516-8.516
			v-68.126C148.73,225.221,144.917,221.408,140.214,221.408z"/>
	</g>
</g>
<g>
	<g>
		<path d="M106.152,212.893c-4.703,0-8.516,3.813-8.516,8.516v85.157c0,4.703,3.813,8.516,8.516,8.516
			c4.703,0,8.516-3.813,8.516-8.516v-85.157C114.667,216.705,110.854,212.893,106.152,212.893z"/>
	</g>
</g>
<g>
	<g>
		<path d="M369.64,36.573l-34.013-34.08c-3.322-3.324-8.686-3.324-12.009,0l-35.094,35.111c-3.326,3.326-3.318,8.717,0.008,12.044
			c1.661,1.662,3.85,2.494,6.029,2.494c2.179,0,3.828-0.832,5.489-2.494l18.994-19.526v38.004c0,4.703,3.813,8.516,8.516,8.516
			c4.703,0,8.516-3.813,8.516-8.516V28.026l21.123,20.591c3.322,3.324,8.986,3.324,12.308,0
			C372.833,45.29,372.966,39.899,369.64,36.573z"/>
	</g>
</g>
<g>
	<g>
		<path d="M369.503,462.351c-3.326-3.324-8.982-3.324-12.304,0l-21.123,20.592v-40.125c0-4.703-3.813-8.516-8.516-8.516
			c-4.703,0-8.516,3.813-8.516,8.516v40.092l-18.994-19.526c-3.322-3.325-8.453-3.325-11.776,0
			c-3.326,3.326-3.193,8.717,0.133,12.044l34.146,34.079c1.597,1.597,3.796,2.494,6.054,2.494c2.258,0,4.441-0.897,6.037-2.494
			l35.119-35.112C373.091,471.068,372.829,465.676,369.503,462.351z"/>
	</g>
</g>
</svg>